<svg width="64" height="64" viewBox="0 0 64 64" fill="none" xmlns="http://www.w3.org/2000/svg">
  <rect width="64" height="64" rx="16" fill="#D89012"/>
  <path d="M50.332 22.124c-.468-1.756-1.848-3.136-3.604-3.604C43.54 17.5 32 17.5 32 17.5s-11.54 0-14.728 1.02c-1.756.468-3.136 1.848-3.604 3.604C12.5 25.312 12.5 32 12.5 32s0 6.688 1.168 9.876c.468 1.756 1.848 3.136 3.604 3.604C20.46 46.5 32 46.5 32 46.5s11.54 0 14.728-1.02c1.756-.468 3.136-1.848 3.604-3.604C51.5 38.688 51.5 32 51.5 32s0-6.688-1.168-9.876z" fill="white"/>
  <path d="M28 38.5V25.5l10 6.5-10 6.5z" fill="#D89012"/>
</svg>
